<svg version="1.1" id="Layer_1" xmlns="http://www.w3.org/2000/svg" xmlns:xlink="http://www.w3.org/1999/xlink" x="0px" y="0px"
	 width="100%" viewBox="0 0 2109 2120" enable-background="new 0 0 2109 2120" xml:space="preserve">
<path fill="#000000" opacity="1.000000" stroke="none" 
	d="
M1250.000000,2122.000000 
	C833.382324,2122.000000 417.764679,2122.000000 2.073509,2122.000000 
	C2.073509,1415.465698 2.073509,708.931335 2.073509,2.198482 
	C705.118042,2.198482 1408.236084,2.198482 2111.677246,2.198482 
	C2111.677246,708.666565 2111.677246,1415.333252 2111.677246,2122.000000 
	C1824.930542,2122.000000 1537.965210,2122.000000 1250.000000,2122.000000 
M1863.526245,1969.895752 
	C1893.796021,1952.887451 1919.309937,1930.418823 1940.570435,1903.014160 
	C1964.237915,1872.506714 1979.362183,1838.063232 1987.533325,1800.517578 
	C1993.381836,1773.645508 1994.288330,1746.263550 1991.100342,1719.146729 
	C1987.797119,1691.050781 1980.049072,1663.864502 1967.451050,1638.245605 
	C1953.210693,1609.286865 1934.321411,1583.850830 1910.684326,1561.921143 
	C1896.307739,1548.582520 1881.887817,1535.290649 1867.467773,1521.999023 
	C1865.771362,1520.435303 1863.951904,1519.005005 1861.663696,1516.312012 
	C1822.033691,1476.644409 1782.407593,1436.972900 1742.756714,1397.326172 
	C1741.371216,1395.940918 1739.737793,1394.803711 1737.695312,1392.342651 
	C1692.048828,1346.658813 1646.405762,1300.971313 1600.739136,1255.307617 
	C1599.348755,1253.917358 1597.711182,1252.774536 1595.666870,1250.313232 
	C1569.766113,1223.522217 1543.274414,1197.371094 1518.333984,1169.570435 
	C1484.163452,1131.481445 1440.534790,1107.783203 1390.539062,1096.219482 
	C1353.379639,1087.625122 1316.163452,1087.477783 1278.933838,1095.712524 
	C1235.804932,1105.252075 1197.703857,1124.784302 1164.740967,1154.109863 
	C1129.076782,1185.838867 1104.174194,1224.761719 1090.605591,1270.425781 
	C1080.688354,1303.800903 1077.336548,1338.000122 1081.633423,1372.894165 
	C1087.032959,1416.742188 1102.451660,1456.505005 1127.967407,1492.449829 
	C1137.008423,1505.186279 1149.000977,1515.020508 1159.989258,1525.941040 
	C1283.364014,1648.554443 1406.227539,1771.682617 1529.193848,1894.707031 
	C1533.183350,1898.698730 1536.939331,1902.945679 1540.571411,1907.269043 
	C1556.245117,1925.926636 1573.252930,1943.117432 1594.601562,1957.518799 
	C1624.499512,1977.852173 1657.046753,1991.775513 1692.746704,1998.057739 
	C1707.052246,2000.575317 1721.343628,2003.290894 1737.835693,2002.257080 
	C1772.503052,2003.069458 1805.625488,1995.719727 1837.554810,1982.766113 
	C1846.066162,1979.312744 1853.959595,1974.336182 1863.526245,1969.895752 
M1794.202271,540.386353 
	C1751.941772,476.877747 1702.278564,419.777802 1644.647339,367.742432 
	C1637.566650,361.535858 1630.618286,355.169647 1623.372192,349.162506 
	C1613.952026,341.353027 1604.367920,333.735992 1594.726562,326.199554 
	C1568.374634,305.600983 1541.275269,286.076233 1511.444458,268.222046 
	C1504.204468,264.032837 1496.929688,259.902374 1489.730103,255.644760 
	C1448.674561,231.365906 1405.630737,211.261551 1361.140991,194.158737 
	C1323.564331,179.713470 1285.274170,167.619644 1244.439453,158.244736 
	C1213.755249,150.861053 1182.753174,145.406845 1151.431763,141.361053 
	C1117.474243,136.974762 1083.436646,133.997131 1049.238281,133.828522 
	C1022.985168,133.699081 996.702698,134.567307 970.475952,135.858032 
	C953.604370,136.688339 936.809998,139.087784 918.372803,140.547592 
	C889.302856,145.653595 860.037903,149.852295 831.202148,156.048111 
	C764.300842,170.422852 700.127625,193.092316 638.393494,222.571259 
	C579.336853,250.771652 524.003906,285.023315 472.244171,325.113861 
	C441.693115,348.777252 412.786774,374.309540 385.359894,401.447998 
	C369.540436,417.101074 354.851929,433.924927 340.057098,450.579529 
	C315.278473,478.472809 292.878082,508.263947 272.157532,539.245117 
	C249.948166,572.452454 229.961716,606.981934 212.190430,642.827087 
	C189.982544,687.621094 171.776001,733.947754 157.009399,781.657410 
	C144.517731,822.016907 135.153671,863.162659 128.617188,904.855713 
	C123.015961,940.583130 119.511360,976.579224 118.214897,1012.793762 
	C116.617668,1057.409546 117.791573,1101.917358 122.431519,1146.282959 
	C126.959053,1189.573608 134.600983,1232.376343 145.386826,1274.567017 
	C161.659698,1338.220947 184.257462,1399.501953 213.788879,1458.268677 
	C234.153763,1498.794189 257.360504,1537.523193 283.244781,1574.740356 
	C313.534515,1618.291626 347.841827,1658.472046 384.994415,1696.198608 
	C400.608185,1712.053467 417.518799,1726.652100 434.118622,1741.510376 
	C462.175323,1766.623535 492.317871,1789.108521 523.548950,1810.047485 
	C557.843384,1833.040039 593.616699,1853.542969 630.734924,1871.744995 
	C672.923035,1892.433472 716.502136,1909.557861 761.261047,1923.634155 
	C795.181885,1934.301880 829.665833,1943.001465 864.748718,1948.978516 
	C881.731079,1951.871582 898.877930,1953.799194 917.179016,1957.216309 
	C961.747620,1962.956787 1006.510681,1965.164551 1051.419312,1964.268677 
	C1064.021729,1964.017212 1076.633545,1963.300537 1089.197632,1962.268555 
	C1114.317871,1960.205688 1139.640503,1959.201416 1164.454224,1955.152466 
	C1198.157104,1949.653076 1231.487427,1941.832764 1264.920044,1934.736816 
	C1274.510254,1932.701416 1283.902222,1929.731323 1294.514526,1926.887085 
	C1291.911255,1923.900146 1290.358154,1921.845215 1288.533081,1920.069946 
	C1278.993896,1910.790039 1269.319580,1901.648438 1259.813110,1892.335449 
	C1224.376831,1857.621704 1188.975220,1822.872559 1153.584717,1788.112305 
	C1114.629028,1749.850586 1075.666626,1711.595581 1036.769043,1673.274902 
	C1008.063538,1644.994995 979.522583,1616.547974 950.772156,1588.313965 
	C940.109619,1577.842896 929.059692,1567.766357 917.669006,1556.305664 
	C897.048645,1535.968018 876.425964,1515.632568 855.809387,1495.290894 
	C850.830627,1490.378784 845.912415,1485.404663 840.896851,1480.530518 
	C820.613647,1460.820068 798.957703,1442.325928 780.293335,1421.188721 
	C745.327942,1381.590820 711.644592,1340.817383 681.103699,1297.608276 
	C660.499329,1268.457275 642.340271,1237.947266 630.421631,1204.070679 
	C617.942139,1168.600342 613.984131,1131.688354 612.435547,1094.467041 
	C611.246094,1065.877319 612.413086,1037.274170 616.537292,1008.947449 
	C625.354614,948.385986 645.307251,891.696106 677.023132,839.238281 
	C702.357056,797.336060 733.744934,760.535461 771.014587,728.875000 
	C802.076111,702.488281 835.977844,680.308594 873.299500,663.705994 
	C888.725708,656.843567 904.526611,650.823608 921.717529,644.363525 
	C959.749207,631.733521 998.914001,624.612610 1038.810303,622.599731 
	C1065.656738,621.245300 1092.576172,622.176819 1119.409180,625.512817 
	C1157.275879,630.220398 1193.731079,639.572205 1228.520264,655.326355 
	C1232.708618,657.223022 1237.122314,658.622131 1242.304443,661.349426 
	C1270.331787,675.973938 1297.406494,692.219727 1322.009155,712.090332 
	C1345.487305,731.052734 1368.859497,750.265930 1390.939941,770.807373 
	C1415.989136,794.110779 1439.510620,819.053467 1463.775635,843.203674 
	C1478.850830,858.207581 1494.073242,873.063538 1509.750854,889.082703 
	C1518.246948,897.977173 1526.662354,906.950317 1535.255981,915.749573 
	C1552.928467,933.845093 1570.596191,951.947327 1588.454590,969.858643 
	C1604.653198,986.105286 1621.102417,1002.102112 1638.054321,1019.430786 
	C1642.548584,1024.310547 1646.896973,1029.334473 1651.560303,1034.046997 
	C1688.494995,1071.372437 1725.498901,1108.629395 1762.448120,1145.940552 
	C1765.243042,1148.762939 1767.655029,1151.966187 1770.465820,1154.770996 
	C1775.619507,1159.913696 1780.937988,1164.891235 1786.694214,1171.162720 
	C1828.697754,1213.739868 1870.701172,1256.317017 1913.380859,1299.579590 
	C1914.621826,1295.940063 1915.689697,1293.513550 1916.276611,1290.975830 
	C1921.284668,1269.320923 1926.691895,1247.743286 1931.054199,1225.957275 
	C1941.234619,1175.114258 1946.726685,1123.670166 1948.197021,1071.872803 
	C1949.413940,1029.003052 1947.222778,986.222473 1942.308960,943.583069 
	C1937.706299,903.643372 1930.638672,864.167908 1920.852173,825.184875 
	C1900.748413,745.104797 1870.442261,669.073792 1829.387207,597.437927 
	C1818.509399,578.457397 1806.227661,560.281494 1794.202271,540.386353 
z"/>
<path fill="#943DFF" opacity="1.000000" stroke="none" 
	d="
M920.157104,644.420532 
	C904.526611,650.823608 888.725708,656.843567 873.299500,663.705994 
	C835.977844,680.308594 802.076111,702.488281 771.014587,728.875000 
	C733.744934,760.535461 702.357056,797.336060 677.023132,839.238281 
	C645.307251,891.696106 625.354614,948.385986 616.537292,1008.947449 
	C612.413086,1037.274170 611.246094,1065.877319 612.435547,1094.467041 
	C613.984131,1131.688354 617.942139,1168.600342 630.421631,1204.070679 
	C642.340271,1237.947266 660.499329,1268.457275 681.103699,1297.608276 
	C711.644592,1340.817383 745.327942,1381.590820 780.293335,1421.188721 
	C798.957703,1442.325928 820.613647,1460.820068 840.896851,1480.530518 
	C845.912415,1485.404663 850.830627,1490.378784 855.809387,1495.290894 
	C876.425964,1515.632568 897.048645,1535.968018 917.830811,1557.777832 
	C917.328491,1565.837036 916.091614,1572.423462 916.084717,1579.011353 
	C915.953430,1704.728760 915.966858,1830.446289 915.950317,1956.163818 
	C898.877930,1953.799194 881.731079,1951.871582 864.748718,1948.978516 
	C829.665833,1943.001465 795.181885,1934.301880 761.261047,1923.634155 
	C716.502136,1909.557861 672.923035,1892.433472 630.734924,1871.744995 
	C593.616699,1853.542969 557.843384,1833.040039 523.548950,1810.047485 
	C492.317871,1789.108521 462.175323,1766.623535 434.118622,1741.510376 
	C417.518799,1726.652100 400.608185,1712.053467 384.994415,1696.198608 
	C347.841827,1658.472046 313.534515,1618.291626 283.244781,1574.740356 
	C257.360504,1537.523193 234.153763,1498.794189 213.788879,1458.268677 
	C184.257462,1399.501953 161.659698,1338.220947 145.386826,1274.567017 
	C134.600983,1232.376343 126.959053,1189.573608 122.431519,1146.282959 
	C117.791573,1101.917358 116.617668,1057.409546 118.214897,1012.793762 
	C119.511360,976.579224 123.015961,940.583130 128.617188,904.855713 
	C135.153671,863.162659 144.517731,822.016907 157.009399,781.657410 
	C171.776001,733.947754 189.982544,687.621094 212.190430,642.827087 
	C229.961716,606.981934 249.948166,572.452454 272.157532,539.245117 
	C292.878082,508.263947 315.278473,478.472809 340.057098,450.579529 
	C354.851929,433.924927 369.540436,417.101074 385.359894,401.447998 
	C412.786774,374.309540 441.693115,348.777252 472.244171,325.113861 
	C524.003906,285.023315 579.336853,250.771652 638.393494,222.571259 
	C700.127625,193.092316 764.300842,170.422852 831.202148,156.048111 
	C860.037903,149.852295 889.302856,145.653595 919.179504,141.553009 
	C919.990845,304.181274 919.993835,465.804138 920.006592,627.427002 
	C920.007019,633.091492 920.104736,638.755981 920.157104,644.420532 
z"/>
<path fill="#923DFF" opacity="1.000000" stroke="none" 
	d="
M1593.866211,1956.408691 
	C1573.252930,1943.117432 1556.245117,1925.926636 1540.571411,1907.269043 
	C1536.939331,1902.945679 1533.183350,1898.698730 1529.193848,1894.707031 
	C1406.227539,1771.682617 1283.364014,1648.554443 1159.989258,1525.941040 
	C1149.000977,1515.020508 1137.008423,1505.186279 1127.967407,1492.449829 
	C1102.451660,1456.505005 1087.032959,1416.742188 1081.633423,1372.894165 
	C1077.336548,1338.000122 1080.688354,1303.800903 1090.605591,1270.425781 
	C1104.174194,1224.761719 1129.076782,1185.838867 1164.740967,1154.109863 
	C1197.703857,1124.784302 1235.804932,1105.252075 1278.933838,1095.712524 
	C1316.163452,1087.477783 1353.379639,1087.625122 1390.539062,1096.219482 
	C1440.534790,1107.783203 1484.163452,1131.481445 1518.333984,1169.570435 
	C1543.274414,1197.371094 1569.766113,1223.522217 1595.736938,1251.762695 
	C1595.204712,1259.140381 1594.078125,1265.068359 1594.075684,1270.996948 
	C1593.986084,1493.806152 1594.000977,1716.615479 1593.994385,1939.424683 
	C1593.994141,1945.086060 1593.910767,1950.747314 1593.866211,1956.408691 
z"/>
<path fill="#8E3DFF" opacity="1.000000" stroke="none" 
	d="
M920.937317,644.391968 
	C920.104736,638.755981 920.007019,633.091492 920.006592,627.427002 
	C919.993835,465.804138 919.990845,304.181274 919.983643,141.671173 
	C936.809998,139.087784 953.604370,136.688339 970.475952,135.858032 
	C996.702698,134.567307 1022.985168,133.699081 1049.238281,133.828522 
	C1083.436646,133.997131 1117.474243,136.974762 1151.431763,141.361053 
	C1182.753174,145.406845 1213.755249,150.861053 1245.211914,159.400436 
	C1245.989502,322.014282 1245.995117,483.472412 1245.997437,644.930542 
	C1245.997559,647.260681 1246.508057,649.772705 1245.808838,651.877014 
	C1244.828247,654.827698 1242.934692,657.474915 1241.431519,660.251892 
	C1237.122314,658.622131 1232.708618,657.223022 1228.520264,655.326355 
	C1193.731079,639.572205 1157.275879,630.220398 1119.409180,625.512817 
	C1092.576172,622.176819 1065.656738,621.245300 1038.810303,622.599731 
	C998.914001,624.612610 959.749207,631.733521 920.937317,644.391968 
z"/>
<path fill="#883DFF" opacity="1.000000" stroke="none" 
	d="
M1241.867920,660.800659 
	C1242.934692,657.474915 1244.828247,654.827698 1245.808838,651.877014 
	C1246.508057,649.772705 1245.997559,647.260681 1245.997437,644.930542 
	C1245.995117,483.472412 1245.989502,322.014282 1245.981812,159.668762 
	C1285.274170,167.619644 1323.564331,179.713470 1361.140991,194.158737 
	C1405.630737,211.261551 1448.674561,231.365906 1489.730103,255.644760 
	C1496.929688,259.902374 1504.204468,264.032837 1511.735596,269.679077 
	C1511.351196,278.059814 1510.089111,284.983246 1510.085327,291.907379 
	C1509.978760,484.288696 1510.007324,676.670044 1509.967529,869.051453 
	C1509.966309,875.362976 1509.486450,881.674438 1509.229614,887.985840 
	C1494.073242,873.063538 1478.850830,858.207581 1463.775635,843.203674 
	C1439.510620,819.053467 1415.989136,794.110779 1390.939941,770.807373 
	C1368.859497,750.265930 1345.487305,731.052734 1322.009155,712.090332 
	C1297.406494,692.219727 1270.331787,675.973938 1241.867920,660.800659 
z"/>
<path fill="#7B3DFF" opacity="1.000000" stroke="none" 
	d="
M1786.187744,1169.937744 
	C1780.937988,1164.891235 1775.619507,1159.913696 1770.465820,1154.770996 
	C1767.655029,1151.966187 1765.243042,1148.762939 1762.448120,1145.940552 
	C1725.498901,1108.629395 1688.494995,1071.372437 1651.560303,1034.046997 
	C1646.896973,1029.334473 1642.548584,1024.310547 1638.489258,1018.483765 
	C1643.913574,1013.767395 1641.906006,1008.313232 1641.908447,1003.603210 
	C1642.014526,798.652893 1641.999756,593.702515 1642.000854,388.752106 
	C1642.000854,385.419647 1641.557007,382.001923 1642.152832,378.777893 
	C1642.788574,375.337952 1644.414429,372.081024 1645.607910,368.744202 
	C1702.278564,419.777802 1751.941772,476.877747 1793.727295,541.527954 
	C1788.419800,546.866028 1790.066040,552.560974 1790.064087,557.693359 
	C1789.988525,756.305481 1790.000244,954.917664 1789.997803,1153.529785 
	C1789.997803,1156.862061 1790.425171,1160.285156 1789.791260,1163.495850 
	C1789.338257,1165.790894 1787.440674,1167.800659 1786.187744,1169.937744 
z"/>
<path fill="#873DFF" opacity="1.000000" stroke="none" 
	d="
M1594.233887,1956.963745 
	C1593.910767,1950.747314 1593.994141,1945.086060 1593.994385,1939.424683 
	C1594.000977,1716.615479 1593.986084,1493.806152 1594.075684,1270.996948 
	C1594.078125,1265.068359 1595.204712,1259.140381 1595.997925,1252.364136 
	C1597.711182,1252.774536 1599.348755,1253.917358 1600.739136,1255.307617 
	C1646.405762,1300.971313 1692.048828,1346.658813 1737.619751,1393.743408 
	C1737.029419,1400.409546 1736.066772,1405.674561 1736.064697,1410.939941 
	C1735.987305,1607.921509 1735.998535,1804.903076 1735.997803,2001.884644 
	C1721.343628,2003.290894 1707.052246,2000.575317 1692.746704,1998.057739 
	C1657.046753,1991.775513 1624.499512,1977.852173 1594.233887,1956.963745 
z"/>
<path fill="#823DFF" opacity="1.000000" stroke="none" 
	d="
M1645.127686,368.243317 
	C1644.414429,372.081024 1642.788574,375.337952 1642.152832,378.777893 
	C1641.557007,382.001923 1642.000854,385.419647 1642.000854,388.752106 
	C1641.999756,593.702515 1642.014526,798.652893 1641.908447,1003.603210 
	C1641.906006,1008.313232 1643.913574,1013.767395 1638.182617,1017.872925 
	C1621.102417,1002.102112 1604.653198,986.105286 1588.454590,969.858643 
	C1570.596191,951.947327 1552.928467,933.845093 1535.255981,915.749573 
	C1526.662354,906.950317 1518.246948,897.977173 1509.490234,888.534302 
	C1509.486450,881.674438 1509.966309,875.362976 1509.967529,869.051453 
	C1510.007324,676.670044 1509.978760,484.288696 1510.085327,291.907379 
	C1510.089111,284.983246 1511.351196,278.059814 1512.129395,270.257812 
	C1541.275269,286.076233 1568.374634,305.600983 1594.726562,326.199554 
	C1604.367920,333.735992 1613.952026,341.353027 1623.372192,349.162506 
	C1630.618286,355.169647 1637.566650,361.535858 1645.127686,368.243317 
z"/>
<path fill="#753DFE" opacity="1.000000" stroke="none" 
	d="
M1786.440918,1170.550293 
	C1787.440674,1167.800659 1789.338257,1165.790894 1789.791260,1163.495850 
	C1790.425171,1160.285156 1789.997803,1156.862061 1789.997803,1153.529785 
	C1790.000244,954.917664 1789.988525,756.305481 1790.064087,557.693359 
	C1790.066040,552.560974 1788.419800,546.866028 1793.921509,542.202820 
	C1806.227661,560.281494 1818.509399,578.457397 1829.387207,597.437927 
	C1870.442261,669.073792 1900.748413,745.104797 1920.852173,825.184875 
	C1930.638672,864.167908 1937.706299,903.643372 1942.308960,943.583069 
	C1947.222778,986.222473 1949.413940,1029.003052 1948.197021,1071.872803 
	C1946.726685,1123.670166 1941.234619,1175.114258 1931.054199,1225.957275 
	C1926.691895,1247.743286 1921.284668,1269.320923 1916.276611,1290.975830 
	C1915.689697,1293.513550 1914.621826,1295.940063 1913.380859,1299.579590 
	C1870.701172,1256.317017 1828.697754,1213.739868 1786.440918,1170.550293 
z"/>
<path fill="#8F3DFE" opacity="1.000000" stroke="none" 
	d="
M916.564697,1956.690063 
	C915.966858,1830.446289 915.953430,1704.728760 916.084717,1579.011353 
	C916.091614,1572.423462 917.328491,1565.837036 918.089600,1558.379883 
	C929.059692,1567.766357 940.109619,1577.842896 950.772156,1588.313965 
	C979.522583,1616.547974 1008.063538,1644.994995 1036.769043,1673.274902 
	C1075.666626,1711.595581 1114.629028,1749.850586 1153.584717,1788.112305 
	C1188.975220,1822.872559 1224.376831,1857.621704 1259.813110,1892.335449 
	C1269.319580,1901.648438 1278.993896,1910.790039 1288.533081,1920.069946 
	C1290.358154,1921.845215 1291.911255,1923.900146 1294.514526,1926.887085 
	C1283.902222,1929.731323 1274.510254,1932.701416 1264.920044,1934.736816 
	C1231.487427,1941.832764 1198.157104,1949.653076 1164.454224,1955.152466 
	C1139.640503,1959.201416 1114.317871,1960.205688 1089.197632,1962.268555 
	C1076.633545,1963.300537 1064.021729,1964.017212 1051.419312,1964.268677 
	C1006.510681,1965.164551 961.747620,1962.956787 916.564697,1956.690063 
z"/>
<path fill="#7E3DFF" opacity="1.000000" stroke="none" 
	d="
M1736.916748,2002.070801 
	C1735.998535,1804.903076 1735.987305,1607.921509 1736.064697,1410.939941 
	C1736.066772,1405.674561 1737.029419,1400.409546 1737.882080,1394.347656 
	C1739.737793,1394.803711 1741.371216,1395.940918 1742.756714,1397.326172 
	C1782.407593,1436.972900 1822.033691,1476.644409 1861.736084,1517.760742 
	C1861.207031,1523.471436 1860.082520,1527.733032 1860.079712,1531.995361 
	C1859.987671,1674.508057 1859.987427,1817.020752 1860.091187,1959.533325 
	C1860.093750,1963.042480 1861.424927,1966.550415 1862.136597,1970.058960 
	C1853.959595,1974.336182 1846.066162,1979.312744 1837.554810,1982.766113 
	C1805.625488,1995.719727 1772.503052,2003.069458 1736.916748,2002.070801 
z"/>
<path fill="#763DFE" opacity="1.000000" stroke="none" 
	d="
M1862.831421,1969.977295 
	C1861.424927,1966.550415 1860.093750,1963.042480 1860.091187,1959.533325 
	C1859.987427,1817.020752 1859.987671,1674.508057 1860.079712,1531.995361 
	C1860.082520,1527.733032 1861.207031,1523.471436 1861.999023,1518.361206 
	C1863.951904,1519.005005 1865.771362,1520.435303 1867.467773,1521.999023 
	C1881.887817,1535.290649 1896.307739,1548.582520 1910.684326,1561.921143 
	C1934.321411,1583.850830 1953.210693,1609.286865 1967.451050,1638.245605 
	C1980.049072,1663.864502 1987.797119,1691.050781 1991.100342,1719.146729 
	C1994.288330,1746.263550 1993.381836,1773.645508 1987.533325,1800.517578 
	C1979.362183,1838.063232 1964.237915,1872.506714 1940.570435,1903.014160 
	C1919.309937,1930.418823 1893.796021,1952.887451 1862.831421,1969.977295 
z"/>
</svg>