<svg version="1.1" xmlns="http://www.w3.org/2000/svg" viewBox="0 0 2109 2120" width="60" height="60">
<path fill="#943DFF" d="M920.157,644.421c-15.631,6.403-31.432,12.423-46.858,19.285c-37.322,16.603-71.223,38.783-102.285,65.169c-37.27,31.66-68.658,68.461-93.992,110.363c-31.716,52.458-51.669,109.147-60.486,169.71c-4.124,28.327-5.291,56.93-4.102,85.52c1.549,37.221,5.507,74.133,17.986,109.604c11.919,33.877,30.078,64.387,50.682,93.538c30.541,43.209,64.228,83.982,99.19,123.581c18.664,21.137,40.32,39.631,60.604,59.342c5.016,4.874,9.934,9.848,14.912,14.76c20.617,20.342,41.239,40.678,62.022,62.487c-0.502,8.059-1.739,14.645-1.746,21.234c-0.131,125.718-0.118,251.435-0.134,377.153c-17.073-2.364-34.219-4.292-51.202-7.185c-35.083-5.977-69.567-14.677-103.488-25.345c-44.759-14.076-88.338-31.2-130.526-51.889c-37.118-18.202-72.891-38.705-107.186-61.698c-31.231-20.939-61.373-43.424-89.43-68.537c-16.6-14.859-33.51-29.457-49.124-45.312c-37.153-37.726-71.46-77.907-101.75-121.458c-25.884-37.217-49.091-75.946-69.456-116.472c-28.531-58.747-51.129-120.028-67.402-183.702c-10.786-42.191-18.427-84.994-22.955-128.284c-4.641-43.366-5.815-86.873-4.217-130.489c0.797-36.215,4.301-72.211,9.903-107.938c6.536-41.693,15.9-82.839,28.392-122.198c14.767-47.71,32.973-94.036,55.181-138.83c17.771-35.845,37.758-70.375,59.967-103.582c20.721-30.981,43.121-60.772,67.9-88.666c14.795-16.655,29.484-33.479,45.303-49.132c27.427-27.138,56.334-52.67,86.884-76.334c51.76-40.09,107.093-74.342,166.149-102.542c61.734-29.479,125.907-52.15,192.809-66.523c28.835-6.196,58.1-10.395,87.977-14.495c0.811,162.628,0.814,324.251,0.827,485.874C920.007,633.091,920.105,638.756,920.157,644.421z"/>
<path fill="#923DFF" d="M1593.866,1956.409c-20.613-13.291-37.621-30.482-53.295-49.14c-3.632-4.323-7.388-8.57-11.378-12.562c-123.034-122.825-245.898-245.953-368.864-368.766c-11.011-10.921-23.003-20.755-32.044-33.491c-25.516-35.945-40.935-75.708-46.334-119.555c-4.297-34.894-0.945-69.093,8.972-102.468c13.569-45.664,38.471-84.587,74.135-116.316c32.963-29.325,71.064-48.858,114.193-58.397c37.23-8.235,74.446-8.087,111.605,0.507c50.005,11.564,93.634,35.262,127.795,73.351c24.941,27.801,51.433,53.952,77.403,82.192c-0.532,7.378-1.658,13.306-1.66,19.234C1593.986,1493.806,1594.001,1716.615,1593.994,1939.425C1593.994,1945.086,1593.911,1950.747,1593.866,1956.409z"/>
<path fill="#8E3DFF" d="M920.937,644.392c-0.833-5.636-0.931-11.3-0.931-16.965c-0.013-161.623-0.016-323.246-0.023-485.756c16.826-2.583,33.62-4.982,50.492-5.813c26.227-1.291,52.51-2.159,78.762-2.03c34.198,0.169,68.236,3.146,102.193,7.532c31.322,4.045,62.324,9.5,93.78,18.039c0.778,162.614,0.783,324.072,0.786,485.53c0,2.33,0.51,4.842-0.189,6.946c-0.981,2.951-2.874,5.598-4.377,8.375c-4.309-1.63-8.723-3.029-12.911-4.925c-34.789-15.754-71.245-25.106-109.111-29.814C1092.576,622.177,1065.657,621.245,1038.81,622.6C998.914,624.613,959.749,631.734,920.937,644.392z"/>
<path fill="#883DFF" d="M1241.868,660.801c1.067-3.326,2.96-5.973,3.941-8.924c0.699-2.105,0.189-4.617,0.189-6.947c-0.002-161.458-0.008-322.916-0.016-485.262c39.292,7.951,77.582,20.045,115.159,34.49c44.49,17.103,87.534,37.207,128.589,61.486c7.2,4.26,14.474,8.39,21.735,13.034c-0.384,8.381-1.646,15.304-1.65,22.228c-0.107,192.381-0.078,384.762-0.118,577.144c0,6.311-0.48,12.623-0.737,18.934c-15.156-14.922-30.379-29.778-45.454-44.782c-24.265-24.15-47.786-49.093-72.836-72.396C1368.859,750.266,1345.487,731.053,1322.009,712.09C1297.406,692.22,1270.332,675.974,1241.868,660.801z"/>
<path fill="#7B3DFF" d="M1786.188,1169.938c-5.25-5.046-10.568-10.024-15.722-15.167c-2.811-2.805-5.223-6.009-8.018-8.831c-36.95-37.311-73.953-74.568-110.888-111.894c-4.663-4.713-9.011-9.736-13.071-15.563c5.424-4.716,3.417-10.17,3.419-14.88c0.106-204.95,0.091-409.9,0.092-614.85c0-3.332-0.444-6.75,0.152-9.974c0.636-3.44,2.262-6.697,3.455-10.034c56.67,51.034,106.334,108.134,148.12,172.784c-5.308,5.338-3.662,11.033-3.664,16.166C1789.989,756.305,1790,954.918,1789.998,1153.53C1789.998,1156.862,1790.425,1160.285,1789.791,1163.496C1789.338,1165.791,1787.441,1167.801,1786.188,1169.938z"/>
<path fill="#873DFF" d="M1594.234,1956.964c-0.323-6.217-0.239-11.878-0.239-17.54c0.007-222.809-0.008-445.619,0.081-668.428c0.003-5.928,1.129-11.856,1.922-18.632c1.714,0.41,3.351,1.553,4.741,2.943c45.666,45.664,91.309,91.351,136.88,138.436c-0.59,6.666-1.553,11.931-1.555,17.196c-0.077,196.982-0.066,393.963-0.067,590.945C1721.344,2003.291,1707.052,2000.575,1692.747,1998.058C1657.047,1991.776,1624.5,1977.852,1594.234,1956.964z"/>
<path fill="#823DFF" d="M1645.128,368.243c-0.713,3.838-2.339,7.094-2.975,10.535c-0.596,3.224-0.152,6.642-0.152,9.975c-0.001,204.95,0.014,409.901-0.092,614.851c-0.002,4.71,2.005,10.164-3.726,14.27c-17.08-15.771-33.529-31.768-49.728-48.015c-17.858-17.911-35.526-36.013-53.199-54.109c-8.594-8.8-17.009-17.773-25.765-27.215c-0.004-6.86,0.476-13.171,0.477-19.483c0.04-192.381,0.011-384.762,0.118-577.144c0.004-6.924,1.266-13.848,2.044-21.65c29.146,15.819,56.245,35.344,82.597,55.943c9.641,7.536,19.225,15.154,28.645,22.963C1630.618,355.17,1637.567,361.536,1645.128,368.243z"/>
<path fill="#753DFE" d="M1786.441,1170.55c1-2.75,2.897-4.76,3.35-7.055c0.634-3.21,0.206-6.634,0.206-9.966c0.002-198.612-0.01-397.224,0.066-595.836c0.002-5.133-1.644-10.828,3.857-15.491c12.306,18.079,24.588,36.255,35.466,55.235c41.055,71.636,71.361,147.667,91.465,227.747c9.786,38.983,16.854,78.459,21.457,118.398c4.914,42.639,7.105,85.42,5.888,128.29c-1.47,51.797-6.962,103.241-17.143,154.084c-4.363,21.786-9.77,43.363-14.778,65.019c-0.587,2.538-1.655,4.965-2.895,8.604C1870.701,1256.317,1828.698,1213.74,1786.441,1170.55z"/>
<path fill="#8F3DFE" d="M916.565,1956.69c-0.598-126.244-0.611-251.962-0.48-377.679c0.007-6.588,1.244-13.174,2.005-20.632c10.97,9.386,22.02,19.463,32.683,29.934c28.75,28.234,57.291,56.681,86.997,84.961c38.898,38.321,77.86,76.576,116.816,114.837c35.39,34.76,70.792,69.51,106.228,104.223c9.506,9.313,19.18,18.455,28.72,27.735c1.825,1.776,3.378,3.831,5.981,6.817c-10.612,2.844-20.004,5.814-29.594,7.849c-33.433,7.096-66.763,14.917-100.466,20.416c-24.814,4.048-50.137,5.053-75.257,7.116c-12.564,1.032-25.176,1.749-37.778,2C1006.511,1965.165,961.748,1962.957,916.565,1956.69z"/>
<path fill="#7E3DFF" d="M1736.917,2002.071c-0.918-197.168-0.929-394.149-0.852-591.131c0.002-5.265,0.965-10.53,1.817-16.592c1.856,0.456,3.489,1.593,4.875,2.979c39.651,39.647,79.277,79.319,118.979,120.435c-0.529,5.71-1.654,9.972-1.657,14.234c-0.092,142.513-0.092,285.025,0.012,427.538c0.002,3.509,1.333,7.017,2.045,10.526C1853.96,1974.336,1846.066,1979.313,1837.555,1982.766C1805.625,1995.72,1772.503,2003.069,1736.917,2002.071z"/>
<path fill="#763DFE" d="M1862.831,1969.977c-1.407-3.427-2.738-6.935-2.74-10.444c-0.104-142.513-0.104-285.025,0.012-427.538c0.003-4.262,1.128-8.524,1.919-14.634c1.953,0.644,3.773,2.074,5.469,3.638c14.42,13.291,28.84,26.583,43.217,39.922c23.637,21.929,42.526,47.365,56.767,76.324c12.598,25.619,20.346,52.805,23.649,80.901c3.188,27.117,2.281,54.499-3.567,81.371c-8.171,37.546-23.295,71.989-46.963,102.497C1919.31,1930.419,1893.796,1952.887,1862.831,1969.977z"/>
</svg>
